<?xml version="1.0" standalone="no"?>
<!DOCTYPE svg PUBLIC "-//W3C//DTD SVG 20010904//EN"
 "http://www.w3.org/TR/2001/REC-SVG-20010904/DTD/svg10.dtd">
<svg version="1.0" xmlns="http://www.w3.org/2000/svg"
 width="1024.000000pt" height="1024.000000pt" viewBox="0 0 1024.000000 1024.000000"
 preserveAspectRatio="xMidYMid meet">

<g transform="translate(0.000000,1024.000000) scale(0.100000,-0.100000)"
fill="#000000" stroke="none">
<path d="M3137 8129 c-363 -38 -734 -318 -871 -657 -14 -35 -38 -109 -53 -165
l-28 -102 -3 -1865 c-2 -1686 -1 -1873 14 -1945 60 -295 192 -515 405 -675
105 -78 190 -124 297 -160 184 -62 110 -60 2224 -60 1316 0 1951 3 2004 11
161 22 364 109 491 210 34 27 93 84 129 127 131 151 200 281 252 471 l27 96
-1 1865 c0 2081 5 1925 -70 2142 -97 281 -267 473 -541 613 -101 52 -212 82
-351 95 -120 12 -3814 11 -3925 -1z m3943 -238 c82 -15 180 -46 245 -79 135
-67 269 -197 338 -330 45 -86 92 -236 106 -335 8 -54 11 -633 11 -1862 0
-1890 1 -1843 -45 -1980 -90 -266 -314 -477 -581 -545 -78 -20 -100 -21 -2034
-20 -1363 0 -1973 3 -2014 11 -161 29 -314 107 -421 214 -91 90 -139 165 -188
288 -72 184 -68 49 -65 2092 l3 1840 27 100 c32 120 87 232 148 306 144 173
360 286 587 307 140 13 3810 6 3883 -7z"/>
<path d="M3165 7720 c-194 -30 -350 -129 -454 -286 -48 -72 -107 -225 -97
-251 5 -11 124 -13 768 -11 829 3 793 6 824 -53 13 -26 13 -36 3 -60 -25 -61
4 -59 -834 -59 l-765 0 0 -98 0 -99 277 -6 c153 -3 487 -4 743 0 465 6 465 6
492 -16 52 -42 45 -116 -14 -148 -31 -16 -83 -17 -771 -17 -633 1 -737 -1
-732 -13 3 -8 5 -306 5 -662 l0 -647 83 27 c45 14 124 34 175 44 l93 18 -3 50
c-3 49 -5 51 -48 74 -61 32 -105 77 -135 137 -24 48 -25 57 -25 256 l0 207 50
84 c75 126 135 169 236 169 75 0 164 -69 188 -147 9 -29 23 -29 78 2 37 21 46
31 56 72 16 60 89 135 149 153 88 27 184 -22 228 -117 15 -32 30 -65 34 -73
10 -19 54 -25 80 -10 12 6 24 23 27 38 22 91 95 166 171 177 98 13 157 -21
255 -149 53 -68 62 -108 55 -257 -7 -144 -19 -186 -72 -259 -20 -28 -34 -54
-31 -57 4 -4 57 8 119 27 62 18 168 48 237 65 260 67 303 85 284 124 -5 10
-58 61 -119 113 -148 128 -190 176 -233 266 -34 71 -37 84 -37 167 0 78 4 97
28 147 16 32 44 71 64 87 l36 29 -35 44 c-71 87 -83 122 -83 238 0 95 3 110
27 156 32 60 98 117 156 135 l42 12 0 51 c0 28 9 69 19 91 28 61 98 144 147
174 24 14 44 29 44 33 1 24 -118 29 -900 33 -483 2 -850 0 -885 -5z m1005
-185 c22 -20 35 -73 26 -103 -4 -11 -19 -25 -34 -31 -61 -25 -307 -41 -639
-41 l-331 0 -26 31 c-14 17 -26 40 -26 51 0 24 28 85 44 96 10 6 803 21 919
17 29 -1 55 -9 67 -20z"/>
<path d="M5513 7720 c-122 -3 -225 -9 -230 -14 -4 -4 3 -15 16 -25 123 -86
185 -180 206 -312 5 -33 9 -37 44 -42 48 -6 102 -47 142 -106 40 -60 52 -111
47 -201 -4 -85 -38 -167 -95 -227 l-32 -35 35 -30 c19 -17 47 -54 62 -82 24
-46 27 -62 27 -156 0 -95 -3 -111 -29 -168 -19 -42 -60 -97 -117 -160 -48 -53
-86 -98 -84 -100 8 -8 156 24 393 85 l262 68 0 97 0 97 -55 37 c-70 46 -135
120 -174 198 -35 70 -36 84 -28 421 5 226 -1 206 100 349 81 115 124 146 211
153 90 8 141 -13 205 -83 45 -49 64 -82 116 -199 25 -54 37 -190 26 -289 -5
-44 -5 -108 -1 -141 16 -117 12 -186 -15 -243 -22 -48 -128 -168 -167 -188
-16 -9 -22 -52 -19 -136 l1 -26 68 18 c37 9 147 37 245 60 l177 43 0 33 c0 48
-9 63 -49 83 -47 24 -132 115 -162 172 -18 35 -22 60 -22 119 0 41 0 122 0
180 0 315 0 314 18 350 37 72 136 210 168 234 120 92 270 70 357 -51 21 -30
44 -71 51 -92 6 -20 33 -58 60 -86 26 -27 53 -63 58 -78 14 -36 14 -181 1
-227 -8 -26 -6 -51 6 -100 36 -144 -5 -272 -120 -376 -32 -30 -63 -54 -68 -54
-4 0 -8 -11 -8 -24 0 -23 1 -23 43 -10 119 35 355 94 380 94 l28 0 -3 348 c-3
338 -4 349 -27 407 -79 198 -209 325 -408 397 -57 20 -75 21 -738 22 -374 0
-780 -1 -902 -4z"/>
<path d="M5062 7560 c-115 -47 -180 -193 -137 -307 18 -46 112 -151 169 -188
26 -17 27 -17 67 11 51 35 125 117 150 166 25 49 25 148 0 203 -22 47 -74 99
-114 114 -34 13 -103 13 -135 1z"/>
<path d="M6894 7437 c-31 -28 -36 -39 -36 -76 1 -70 75 -150 126 -137 33 8 83
52 102 88 20 40 6 76 -49 123 -54 47 -94 47 -143 2z"/>
<path d="M6173 7405 c-58 -46 -52 -127 13 -185 45 -39 65 -38 115 7 51 46 63
75 49 119 -26 79 -114 108 -177 59z"/>
<path d="M7134 7201 c-21 -16 -65 -55 -97 -87 l-58 -59 -76 72 c-76 73 -121
100 -148 89 -11 -4 -15 -21 -15 -68 l0 -62 108 -108 c76 -76 115 -108 132
-108 16 0 55 31 128 103 l104 103 5 68 c5 52 3 70 -8 77 -22 14 -33 11 -75
-20z"/>
<path d="M4727 7178 c-26 -20 -37 -64 -37 -144 0 -54 5 -85 19 -112 23 -43
390 -412 411 -412 17 0 359 347 401 408 71 100 46 290 -35 266 -12 -3 -95 -80
-186 -170 -91 -90 -170 -164 -176 -164 -6 0 -89 76 -185 170 -96 93 -179 170
-185 170 -5 0 -18 -6 -27 -12z"/>
<path d="M6020 7108 l0 -61 88 -84 c88 -85 114 -100 155 -89 35 9 186 143 193
171 8 34 -5 115 -18 115 -18 0 -131 -76 -163 -110 l-28 -29 -49 42 c-97 84
-131 107 -154 107 -23 0 -24 -4 -24 -62z"/>
<path d="M6746 6874 c-3 -9 -9 -40 -12 -69 l-7 -53 54 -58 c86 -91 166 -154
197 -154 36 0 65 21 166 118 84 81 86 84 86 130 0 70 -9 92 -35 92 -27 0 -101
-57 -163 -124 l-43 -47 -82 74 c-122 109 -148 124 -161 91z"/>
<path d="M6005 6816 c-5 -29 -3 -57 5 -76 15 -37 143 -159 204 -195 l46 -27
32 21 c51 31 155 143 162 174 4 15 4 50 0 77 l-6 49 -32 -16 c-17 -8 -61 -40
-98 -70 l-68 -55 -52 44 c-94 79 -134 107 -160 113 -25 6 -27 4 -33 -39z"/>
<path d="M5303 6483 l-172 -178 -93 89 c-51 49 -130 127 -175 173 -86 88 -114
100 -146 65 -43 -48 -41 -205 3 -277 11 -18 99 -107 195 -199 146 -139 179
-166 204 -166 25 0 58 26 201 163 94 89 185 185 202 212 29 46 32 57 32 140 1
100 -13 137 -56 149 -20 5 -46 -18 -195 -171z"/>
<path d="M7350 6319 c-107 -28 -235 -59 -285 -70 -49 -10 -205 -48 -345 -84
-140 -35 -779 -195 -1420 -355 -641 -159 -1284 -322 -1430 -360 -146 -39 -314
-84 -375 -100 -149 -38 -491 -129 -710 -189 l-180 -48 -3 -102 c-3 -95 -2
-101 15 -93 10 6 90 29 178 52 268 70 403 106 565 150 85 24 216 57 290 75 74
18 214 54 310 80 96 26 227 60 290 75 110 26 464 117 710 182 63 16 176 45
250 63 190 46 335 82 480 120 69 19 152 39 185 45 33 6 110 25 170 41 61 16
205 51 320 79 116 28 262 64 325 80 136 35 470 115 520 125 19 4 71 18 115 31
44 13 121 32 170 42 l90 18 3 97 c3 95 2 97 -20 97 -13 0 -111 -23 -218 -51z"/>
<path d="M4038 6317 c-35 -33 -42 -60 -24 -96 36 -69 90 -79 135 -24 39 47 39
76 2 114 -37 36 -78 38 -113 6z"/>
<path d="M3499 6301 c-42 -42 -40 -92 5 -137 40 -40 74 -44 104 -11 32 34 43
72 31 105 -28 75 -89 93 -140 43z"/>
<path d="M2995 6238 c-62 -34 -75 -115 -26 -167 41 -44 71 -41 115 11 47 54
47 89 2 134 -35 35 -57 41 -91 22z"/>
<path d="M3922 6098 l3 -53 70 -42 c38 -24 80 -43 92 -43 13 0 53 18 88 41
l65 41 0 54 c0 69 -16 69 -101 3 -20 -16 -44 -29 -53 -29 -8 0 -43 18 -77 40
-83 54 -91 53 -87 -12z"/>
<path d="M3390 6077 l0 -65 63 -56 c34 -31 72 -59 84 -62 27 -7 87 26 151 83
39 34 44 43 49 96 5 45 3 57 -8 57 -22 0 -65 -26 -119 -71 l-50 -42 -49 41
c-27 23 -65 51 -85 63 l-36 21 0 -65z"/>
<path d="M2860 5977 c0 -59 10 -73 99 -136 55 -39 86 -39 142 0 24 17 56 38
71 47 27 17 35 35 40 102 3 31 0 35 -22 38 -18 2 -43 -12 -87 -49 l-63 -51
-37 30 c-55 43 -105 72 -125 72 -15 0 -18 -9 -18 -53z"/>
<path d="M7505 5974 c-27 -8 -363 -91 -745 -185 -1072 -263 -1481 -365 -2185
-544 -939 -238 -1812 -464 -1925 -498 l-45 -14 -3 -96 -3 -95 63 14 c35 8 119
30 188 48 313 86 665 177 955 250 121 30 335 84 475 120 581 151 1051 270
1490 377 184 45 639 157 1010 250 371 92 705 174 743 181 l67 13 0 97 c0 111
4 107 -85 82z"/>
<path d="M3920 5913 c0 -43 33 -90 93 -134 42 -30 92 -38 127 -19 21 11 100
126 100 146 0 25 -46 15 -99 -21 l-51 -35 -53 38 c-99 73 -117 77 -117 25z"/>
<path d="M3664 5869 c-16 -12 -45 -38 -65 -56 l-36 -34 -49 39 c-61 48 -87 62
-113 62 -18 0 -21 -6 -21 -41 0 -54 9 -69 86 -133 87 -75 100 -74 192 10 l73
66 -3 52 c-4 60 -19 68 -64 35z"/>
<path d="M2860 5758 c1 -66 11 -84 83 -147 74 -65 93 -65 165 -4 59 51 95 115
90 161 -5 43 -35 38 -108 -18 l-65 -49 -40 38 c-51 49 -85 71 -107 71 -15 0
-18 -9 -18 -52z"/>
<path d="M3846 5766 c-3 -12 -37 -57 -76 -100 -39 -43 -69 -81 -66 -84 9 -9
286 72 286 83 0 6 -31 36 -69 67 -65 53 -69 55 -75 34z"/>
<path d="M3284 5670 c-10 -26 -44 -71 -81 -108 -49 -50 -63 -70 -63 -94 0 -27
3 -30 23 -24 12 3 81 20 152 37 72 18 136 34 143 35 6 2 12 13 12 25 0 21 -29
53 -122 134 l-45 40 -19 -45z"/>
<path d="M7470 5589 c-58 -16 -224 -58 -370 -94 -146 -35 -436 -107 -645 -159
-209 -52 -643 -161 -965 -241 -1177 -293 -2085 -525 -2162 -552 -27 -9 -48
-20 -48 -24 0 -16 53 -48 132 -80 l82 -33 285 72 c706 178 900 223 969 228 58
4 72 2 72 -10 0 -16 41 -29 64 -20 9 3 16 12 16 19 0 13 41 25 94 26 29 0 30
1 9 11 -22 11 -28 48 -7 48 7 0 10 -8 7 -20 -3 -11 0 -20 6 -20 6 0 11 4 11 9
0 4 11 6 24 4 14 -3 39 2 57 11 18 9 40 16 50 16 24 0 35 20 12 20 -30 1 60
39 92 40 17 0 50 -7 73 -15 34 -12 56 -13 100 -6 32 6 92 13 135 17 42 3 77
10 77 14 0 4 19 10 43 13 43 5 188 54 197 67 5 7 63 17 160 26 30 2 76 9 102
15 65 15 330 107 337 117 9 13 53 22 190 38 68 8 154 22 190 33 36 10 100 24
141 31 41 7 97 24 124 38 50 24 153 34 203 18 24 -8 37 -51 31 -102 -4 -37
-24 -46 -173 -79 -184 -40 -577 -131 -705 -164 -63 -16 -187 -45 -275 -66 -88
-20 -207 -50 -265 -66 -58 -16 -233 -59 -390 -94 -157 -36 -339 -81 -405 -99
-66 -19 -139 -37 -162 -41 -24 -4 -43 -10 -43 -14 0 -14 215 -31 390 -31 96 1
258 5 360 10 102 6 277 14 390 19 136 7 237 17 300 30 52 12 183 32 290 46
114 14 231 35 280 50 140 43 218 63 270 70 49 7 50 6 50 -19 0 -14 -11 -42
-25 -62 -14 -20 -26 -43 -26 -50 -1 -8 -2 -22 -3 -31 -2 -29 61 -42 221 -45
l148 -3 3 558 c1 306 -1 556 -5 556 -5 -1 -55 -14 -113 -30z m-957 -456 c-7
-2 -19 -2 -25 0 -7 3 -2 5 12 5 14 0 19 -2 13 -5z"/>
<path d="M3000 4251 c-219 -60 -351 -220 -367 -446 -10 -146 33 -266 135 -377
97 -105 210 -158 338 -160 l72 -1 110 -107 c61 -60 129 -121 152 -136 36 -24
44 -26 62 -15 12 7 69 15 134 18 89 5 112 9 106 19 -4 7 -74 81 -156 163 -110
112 -144 152 -133 157 9 3 27 25 41 47 13 23 36 53 50 66 14 13 40 58 57 100
55 131 52 283 -10 411 -32 68 -147 185 -217 222 -109 58 -250 73 -374 39z
m245 -235 c55 -25 103 -74 137 -139 17 -33 22 -60 22 -122 1 -87 -11 -118 -66
-185 l-30 -35 -43 41 c-41 40 -72 53 -107 46 -28 -5 -34 -50 -13 -89 16 -30
17 -36 4 -44 -34 -22 -143 24 -205 86 -50 50 -77 125 -78 210 0 104 71 204
169 239 64 23 152 20 210 -8z"/>
<path d="M3995 4118 c-32 -84 -100 -261 -152 -393 -52 -132 -110 -280 -128
-330 -18 -49 -36 -97 -39 -105 -5 -13 10 -15 114 -12 l120 3 31 67 c16 36 32
77 35 89 6 23 7 23 179 23 l173 0 26 -77 c15 -43 30 -84 34 -91 6 -9 39 -12
129 -10 l121 3 -169 425 c-93 234 -179 455 -191 493 l-22 67 -102 0 -102 0
-57 -152z m204 -335 l40 -113 -85 0 c-46 0 -84 3 -84 7 0 23 76 231 81 225 4
-4 26 -58 48 -119z"/>
<path d="M4710 4149 l0 -117 220 6 c121 3 220 3 220 0 0 -3 -10 -16 -21 -29
-12 -13 -46 -58 -75 -99 -30 -41 -83 -115 -118 -165 -206 -288 -211 -296 -223
-392 l-9 -73 383 -2 c311 -2 384 -1 388 10 7 19 6 106 -2 171 l-6 54 -209 -5
c-114 -3 -208 -5 -208 -3 0 9 74 133 90 150 9 11 27 40 39 65 19 40 53 90 112
159 11 13 29 41 39 61 11 21 46 75 79 121 56 78 91 150 91 188 0 14 -43 16
-395 16 l-395 0 0 -116z"/>
<path d="M5974 4263 l-61 -4 -33 -87 c-18 -48 -61 -159 -96 -247 -98 -250
-162 -421 -204 -538 l-39 -108 126 3 126 3 31 88 31 87 177 0 c116 0 178 -4
178 -10 0 -6 14 -46 31 -90 l30 -79 125 -3 c68 -2 124 -2 124 0 0 3 -135 336
-252 622 -58 140 -114 280 -125 310 -21 55 -21 55 -64 56 -24 0 -72 -1 -105
-3z m95 -476 c22 -65 41 -119 41 -120 0 -1 -38 -1 -85 1 -47 2 -85 7 -85 10 0
4 16 53 35 110 19 56 35 110 35 119 0 34 18 -4 59 -120z"/>
<path d="M6975 4264 c-126 -20 -235 -75 -315 -160 -112 -121 -159 -274 -127
-425 30 -147 99 -248 226 -331 106 -69 226 -98 325 -79 48 9 48 9 85 -32 20
-23 68 -75 108 -117 l72 -75 69 71 c38 40 79 75 91 79 11 3 21 12 21 18 0 6
-34 46 -76 88 l-77 77 55 65 c34 40 68 95 89 143 30 70 33 89 33 169 -1 180
-77 327 -221 427 -90 62 -250 98 -358 82z m171 -243 c107 -49 177 -157 176
-271 -1 -65 -19 -134 -48 -178 l-16 -24 -41 40 c-23 22 -56 47 -74 56 -36 18
-105 21 -134 6 -26 -15 -24 -58 5 -89 13 -15 32 -39 42 -55 l18 -29 -59 7
c-142 16 -228 99 -255 244 -11 64 -6 102 27 185 17 41 76 88 141 112 56 20
169 18 218 -4z"/>
<path d="M5982 3117 c-48 -49 -40 -102 19 -133 38 -19 79 -11 109 21 32 35 30
78 -5 115 -40 42 -81 40 -123 -3z"/>
<path d="M4096 3115 c-14 -13 -26 -33 -26 -45 0 -50 49 -100 99 -100 21 0 66
46 76 78 5 18 -1 30 -28 57 -43 43 -82 46 -121 10z"/>
<path d="M5069 3101 c-36 -36 -37 -60 -4 -100 31 -36 54 -45 88 -32 26 10 57
57 57 86 0 26 -55 75 -85 75 -16 0 -38 -12 -56 -29z"/>
<path d="M7668 2543 c-31 -5 -36 -20 -12 -37 11 -8 18 -36 22 -86 6 -65 10
-75 26 -75 17 0 19 8 17 93 -3 118 15 121 25 5 4 -49 9 -80 12 -70 5 23 18 22
36 -4 17 -25 46 -19 46 9 0 10 7 27 15 38 13 18 14 16 15 -23 0 -39 2 -43 25
-43 25 0 25 1 25 89 0 72 -3 90 -16 95 -36 14 -51 6 -63 -34 -12 -41 -31 -54
-31 -21 0 50 -63 78 -142 64z"/>
<path d="M5076 2239 c-32 -25 -56 -69 -56 -103 0 -14 14 -41 31 -61 24 -27 39
-35 66 -35 76 0 120 48 110 122 -11 82 -92 123 -151 77z"/>
</g>
</svg>
